<?xml version="1.0" encoding="UTF-8"?> <svg xmlns="http://www.w3.org/2000/svg" xmlns:xlink="http://www.w3.org/1999/xlink" width="640px" height="160px" viewBox="0 0 640 260"> <!-- Generator: Sketch 54.1 (76490) - https://sketchapp.com --> <title>traveller-logo</title> <desc>Created with Sketch.</desc> <defs> <polygon id="path-1" points="4.05119153e-05 0 458.786907 0 458.786907 73.6392807 4.05119153e-05 73.6392807"></polygon> </defs> <g id="traveller-logo" stroke="none" stroke-width="1" fill="none" fill-rule="evenodd"> <g id="Group-3" transform="translate(90.000000, 93.000000)"> <mask id="mask-2" fill="white"> <use xlink:href="#path-1"></use> </mask> <g id="Clip-2"></g> <path d="M452.302611,20.8466177 C452.302611,6.63698232 441.186951,-0.000122651934 428.404227,-0.000122651934 L403.671297,-0.000122651934 L403.671297,73.4773801 L414.786957,73.4773801 L414.786957,40.9455901 L443.687752,73.4773801 L458.786948,73.4773801 L430.163659,42.3475017 C443.966069,42.3475017 452.302611,33.3730597 452.302611,20.8466177 L452.302611,20.8466177 Z M441.186951,21.1270818 C441.186951,27.0164188 438.037555,34.0272033 425.717477,34.0272033 L414.786957,34.0272033 L414.786957,9.62887182 L425.624704,9.62887182 C438.407834,9.62887182 441.186951,15.1445293 441.186951,21.1270818 L441.186951,21.1270818 Z M354.373563,73.5705956 L398.836605,73.5705956 L398.836605,64.0360431 L365.489627,64.0360431 L365.489627,40.7583414 L395.223753,40.7583414 L395.223753,31.2229713 L365.489627,31.2229713 L365.489627,9.62887182 L396.428172,9.62887182 L396.428172,0.0930928177 L354.373563,0.0930928177 L354.373563,73.5705956 Z M310.40031,73.4773801 L349.491877,73.4773801 L349.491877,64.0360431 L321.517184,64.0360431 L321.517184,-0.000122651934 L310.40031,-0.000122651934 L310.40031,73.4773801 Z M266.428272,73.4773801 L305.519839,73.4773801 L305.519839,64.0360431 L277.544336,64.0360431 L277.544336,-0.000122651934 L266.428272,-0.000122651934 L266.428272,73.4773801 Z M217.798174,73.5705956 L262.261216,73.5705956 L262.261216,64.0360431 L228.913833,64.0360431 L228.913833,40.7583414 L258.648364,40.7583414 L258.648364,31.2229713 L228.913833,31.2229713 L228.913833,9.62887182 L259.852783,9.62887182 L259.852783,0.0930928177 L217.798174,0.0930928177 L217.798174,73.5705956 Z M186.530267,73.6392807 L213.779392,-0.000122651934 L202.385821,-0.000122651934 L183.489038,51.535358 L163.547453,-0.000122651934 L151.412919,-0.000122651934 L179.34953,73.6392807 L186.530267,73.6392807 Z M171.487383,73.4773801 L142.624669,0.23659558 L137.582151,0.23659558 L109.146027,73.4773801 L120.910282,73.4773801 L129.246824,51.7892475 L151.386181,51.7892475 L159.723128,73.4773801 L171.487383,73.4773801 Z M147.958873,42.2542862 L132.025942,42.2542862 L139.714293,19.3551702 L147.958873,42.2542862 Z M106.089808,73.4773801 L83.5100873,42.3475017 C97.3116866,42.3475017 105.648634,33.3730597 105.648634,20.8466177 C105.648634,6.63698232 94.5329743,-0.000122651934 81.7502497,-0.000122651934 L57.0173203,-0.000122651934 L57.0173203,73.4773801 L68.1329796,73.4773801 L68.1329796,40.9455901 L90.9906124,73.4773801 L106.089808,73.4773801 Z M79.0634995,34.0272033 L68.1329796,34.0272033 L68.1329796,9.62887182 L78.9711323,9.62887182 C91.7538569,9.62887182 94.5329743,15.1445293 94.5329743,21.1270818 C94.5329743,27.0164188 91.383578,34.0272033 79.0634995,34.0272033 L79.0634995,34.0272033 Z M31.5879911,9.62887182 L52.0594721,9.62887182 L52.0594721,-0.000122651934 L4.05119153e-05,-0.000122651934 L4.05119153e-05,9.62887182 L20.4723318,9.62887182 L20.4723318,73.4773801 L31.5879911,73.4773801 L31.5879911,9.62887182 Z" id="Fill-1" fill="#000000" mask="url(#mask-2)"></path> </g> </g> </svg>